<svg width="636" height="520" viewBox="0 0 636 520" fill="none" xmlns="http://www.w3.org/2000/svg">
<g filter="url(#filter0_d_224_3)">
<rect x="157" y="53" width="321" height="382" fill="white"/>
<path fill-rule="evenodd" clip-rule="evenodd" d="M151.155 16.7325C118.61 16.7325 94.5319 45.2196 95.6083 76.1116C96.6423 105.788 95.2994 144.23 85.6214 175.573C75.9132 207.014 59.4999 226.929 32.6869 229.482V258.354C59.4999 260.908 75.9132 280.822 85.6214 312.264C95.2994 343.607 96.6423 382.048 95.6083 411.725C94.5319 442.617 118.61 471.104 151.155 471.104H484.641C517.186 471.104 541.264 442.617 540.187 411.725C539.153 382.048 540.496 343.607 550.174 312.264C559.883 280.822 576.255 260.908 603.068 258.354V229.482C576.255 226.929 559.883 207.014 550.174 175.573C540.496 144.23 539.153 105.788 540.187 76.1116C541.264 45.2196 517.186 16.7325 484.641 16.7325H151.155ZM434.777 310.409C434.777 360.609 397.338 391.045 335.208 391.045H220.033C218.928 391.045 218.033 390.15 218.033 389.045V107.855C218.033 106.75 218.928 105.855 220.033 105.855H334.601C386.41 105.855 420.409 133.919 420.409 177.004C420.409 207.242 397.54 234.319 368.398 239.062V240.643C408.064 244.991 434.777 272.463 434.777 310.409ZM323.673 142.022H263.365V227.204H314.161C353.422 227.204 375.077 211.393 375.077 183.131C375.077 156.647 356.458 142.022 323.673 142.022ZM263.365 261V354.877H325.899C366.779 354.877 388.433 338.474 388.433 307.642C388.433 276.811 366.172 261 323.268 261H263.365Z" fill="url(#paint0_linear_224_3)"/>
</g>
<defs>
<filter id="filter0_d_224_3" x="0.68689" y="0.732544" width="634.381" height="518.371" filterUnits="userSpaceOnUse" color-interpolation-filters="sRGB">
<feFlood flood-opacity="0" result="BackgroundImageFix"/>
<feColorMatrix in="SourceAlpha" type="matrix" values="0 0 0 0 0 0 0 0 0 0 0 0 0 0 0 0 0 0 127 0" result="hardAlpha"/>
<feOffset dy="16"/>
<feGaussianBlur stdDeviation="16"/>
<feColorMatrix type="matrix" values="0 0 0 0 0 0 0 0 0 0 0 0 0 0 0 0 0 0 0.2 0"/>
<feBlend mode="normal" in2="BackgroundImageFix" result="effect1_dropShadow_224_3"/>
<feBlend mode="normal" in="SourceGraphic" in2="effect1_dropShadow_224_3" result="shape"/>
</filter>
<linearGradient id="paint0_linear_224_3" x1="86.6352" y1="46.6388" x2="238.357" y2="470.257" gradientUnits="userSpaceOnUse">
<stop stop-color="#6610F2"/>
</linearGradient>
</defs>
</svg>
